0, 0, Header, 0, 1, 480
1, 0, Start_track
1, 0, Channel_prefix, 0
1, 0, Title_t, "sanctuary"
1, 0, Instrument_name_t, "Classic Electric Piano"
1, 0, Time_signature, 4, 2, 24, 8
1, 0, Key_signature, 0, "major"
1, 0, SMPTE_offset, 33, 0, 0, 0, 0
1, 0, Tempo, 526316
1, 0, Note_on_c, 0, 90, 80
1, 30, Note_off_c, 0, 90, 0
1, 30, Note_on_c, 0, 89, 80
1, 60, Note_off_c, 0, 89, 0
1, 60, Note_on_c, 0, 90, 80
1, 90, Note_off_c, 0, 90, 0
1, 90, Note_on_c, 0, 89, 80
1, 120, Note_off_c, 0, 89, 0
1, 120, Note_on_c, 0, 90, 80
1, 150, Note_off_c, 0, 90, 0
1, 150, Note_on_c, 0, 89, 80
1, 180, Note_off_c, 0, 89, 0
1, 180, Note_on_c, 0, 90, 80
1, 210, Note_off_c, 0, 90, 0
1, 210, Note_on_c, 0, 89, 80
1, 240, Note_off_c, 0, 89, 0
1, 240, Note_on_c, 0, 90, 80
1, 270, Note_off_c, 0, 90, 0
1, 270, Note_on_c, 0, 89, 80
1, 300, Note_off_c, 0, 89, 0
1, 300, Note_on_c, 0, 90, 80
1, 330, Note_off_c, 0, 90, 0
1, 330, Note_on_c, 0, 89, 80
1, 360, Note_off_c, 0, 89, 0
1, 360, Note_on_c, 0, 90, 80
1, 390, Note_off_c, 0, 90, 0
1, 390, Note_on_c, 0, 89, 80
1, 420, Note_off_c, 0, 89, 0
1, 420, Note_on_c, 0, 90, 80
1, 450, Note_off_c, 0, 90, 0
1, 450, Note_on_c, 0, 89, 80
1, 480, Note_off_c, 0, 89, 0
1, 480, Note_on_c, 0, 90, 80
1, 510, Note_off_c, 0, 90, 0
1, 510, Note_on_c, 0, 89, 80
1, 540, Note_off_c, 0, 89, 0
1, 540, Note_on_c, 0, 90, 80
1, 570, Note_off_c, 0, 90, 0
1, 570, Note_on_c, 0, 89, 80
1, 600, Note_off_c, 0, 89, 0
1, 600, Note_on_c, 0, 90, 80
1, 630, Note_off_c, 0, 90, 0
1, 630, Note_on_c, 0, 89, 80
1, 660, Note_off_c, 0, 89, 0
1, 660, Note_on_c, 0, 90, 80
1, 690, Note_off_c, 0, 90, 0
1, 690, Note_on_c, 0, 89, 80
1, 720, Note_off_c, 0, 89, 0
1, 720, Note_on_c, 0, 90, 80
1, 750, Note_off_c, 0, 90, 0
1, 750, Note_on_c, 0, 89, 80
1, 780, Note_off_c, 0, 89, 0
1, 780, Note_on_c, 0, 90, 80
1, 810, Note_off_c, 0, 90, 0
1, 810, Note_on_c, 0, 90, 80
1, 840, Note_off_c, 0, 90, 0
1, 840, Note_on_c, 0, 91, 80
1, 870, Note_off_c, 0, 91, 0
1, 870, Note_on_c, 0, 90, 80
1, 900, Note_off_c, 0, 90, 0
1, 900, Note_on_c, 0, 91, 80
1, 930, Note_off_c, 0, 91, 0
1, 930, Note_on_c, 0, 90, 80
1, 960, Note_off_c, 0, 90, 0
1, 960, Note_on_c, 0, 91, 80
1, 990, Note_off_c, 0, 91, 0
1, 990, Note_on_c, 0, 90, 80
1, 1020, Note_off_c, 0, 90, 0
1, 1020, Note_on_c, 0, 91, 80
1, 1050, Note_off_c, 0, 91, 0
1, 1050, Note_on_c, 0, 90, 80
1, 1080, Note_off_c, 0, 90, 0
1, 1080, Note_on_c, 0, 91, 80
1, 1110, Note_off_c, 0, 91, 0
1, 1110, Note_on_c, 0, 90, 80
1, 1140, Note_off_c, 0, 90, 0
1, 1140, Note_on_c, 0, 91, 80
1, 1170, Note_off_c, 0, 91, 0
1, 1170, Note_on_c, 0, 90, 80
1, 1200, Note_off_c, 0, 90, 0
1, 1200, Note_on_c, 0, 91, 80
1, 1230, Note_off_c, 0, 91, 0
1, 1230, Note_on_c, 0, 90, 80
1, 1260, Note_off_c, 0, 90, 0
1, 1260, Note_on_c, 0, 91, 80
1, 1290, Note_off_c, 0, 91, 0
1, 1290, Note_on_c, 0, 90, 80
1, 1320, Note_off_c, 0, 90, 0
1, 1320, Note_on_c, 0, 91, 80
1, 1350, Note_off_c, 0, 91, 0
1, 1350, Note_on_c, 0, 90, 80
1, 1380, Note_off_c, 0, 90, 0
1, 1380, Note_on_c, 0, 91, 80
1, 1410, Note_off_c, 0, 91, 0
1, 1410, Note_on_c, 0, 90, 80
1, 1440, Note_off_c, 0, 90, 0
1, 1440, Note_on_c, 0, 91, 80
1, 1470, Note_off_c, 0, 91, 0
1, 1470, Note_on_c, 0, 90, 80
1, 1500, Note_off_c, 0, 90, 0
1, 1500, Note_on_c, 0, 91, 80
1, 1530, Note_off_c, 0, 91, 0
1, 1530, Note_on_c, 0, 90, 80
1, 1560, Note_off_c, 0, 90, 0
1, 1560, Note_on_c, 0, 91, 80
1, 1590, Note_off_c, 0, 91, 0
1, 1590, Note_on_c, 0, 90, 80
1, 1620, Note_off_c, 0, 90, 0
1, 1620, Note_on_c, 0, 91, 80
1, 1650, Note_off_c, 0, 91, 0
1, 1650, Note_on_c, 0, 90, 80
1, 1680, Note_off_c, 0, 90, 0
1, 1680, Note_on_c, 0, 91, 80
1, 1710, Note_off_c, 0, 91, 0
1, 1710, Note_on_c, 0, 90, 80
1, 1740, Note_off_c, 0, 90, 0
1, 1740, Note_on_c, 0, 91, 80
1, 1770, Note_off_c, 0, 91, 0
1, 1770, Note_on_c, 0, 90, 80
1, 1800, Note_off_c, 0, 90, 0
1, 1800, Note_on_c, 0, 91, 80
1, 1830, Note_off_c, 0, 91, 0
1, 21030, End_track
0, 0, End_of_file
